<svg preserveAspectRatio="none" width="100%" height="100%" overflow="visible" style="display: block;" viewBox="0 0 14.8332 16.1817" fill="none" xmlns="http://www.w3.org/2000/svg">
<path id="knob" d="M5.60695 16.1817C5.60695 16.1817 5.36885 15.909 5.29072 15.8144C4.74381 15.1708 4.15226 14.5417 3.58304 13.9127C3.43794 13.7527 3.29656 13.6 3.15519 13.4436C2.9022 13.1673 2.63805 12.8836 2.35529 12.5637C0.524838 10.6474 -0.204368 8.72747 0.0486216 6.52757C0.465311 2.94228 3.59048 0.135137 7.31463 0.00423382C7.8727 -0.0139472 8.43449 0.026051 8.98511 0.131501C11.5931 0.622387 13.405 2.10232 14.3649 4.53493C14.9936 6.12759 14.9899 7.77478 14.35 9.43289C13.5426 11.531 12.0396 13.0109 9.87802 13.84C9.10416 14.1381 8.30055 14.3018 7.48577 14.3308C6.94259 14.349 6.3808 14.309 5.81902 14.2072C5.78181 14.1999 5.75577 14.1999 5.72973 14.1999C5.6888 14.1999 5.65532 14.2145 5.62928 14.2399C5.59207 14.2763 5.58835 14.3308 5.59207 14.4036C5.61439 14.6472 5.60695 16.1817 5.60695 16.1817ZM10.4361 9.00018C10.317 9.42198 10.064 9.77833 9.66223 10.0874C9.08928 10.5347 8.38612 10.7856 7.57507 10.8437C7.51554 10.8474 7.45601 10.851 7.39648 10.8546C6.4887 10.8874 5.72973 10.6801 5.07493 10.2256C4.64708 9.92741 4.37921 9.56379 4.26388 9.11291C4.19691 8.85837 3.996 8.69838 3.74674 8.70565C3.71325 8.70565 3.67605 8.71292 3.63884 8.72019C3.35237 8.78565 3.18495 9.05473 3.2482 9.34562C3.34493 9.80742 3.5756 10.2256 3.92904 10.5965C4.58383 11.2837 5.43581 11.6837 6.52962 11.8255C6.83842 11.8655 7.14722 11.88 7.44485 11.8691C8.2001 11.8437 8.9107 11.6619 9.62131 11.3164C10.4919 10.8656 11.0648 10.2765 11.3662 9.50561C11.3922 9.43653 11.4183 9.36017 11.4406 9.28381C11.5299 8.96746 11.3997 8.69838 11.1169 8.61475C11.0574 8.59656 10.9979 8.58929 10.9383 8.59293C10.7002 8.59656 10.503 8.76019 10.4361 9.00018Z" fill="var(--fill-0, white)"/>
</svg>
