<svg preserveAspectRatio="none" width="100%" height="100%" overflow="visible" style="display: block;" viewBox="0 0 18 20" fill="none" xmlns="http://www.w3.org/2000/svg">
<path id="knob" d="M6.80401 20C6.80401 20 6.51506 19.6629 6.42025 19.5461C5.75659 18.7506 5.03875 17.9731 4.34799 17.1956C4.17192 16.9979 4.00036 16.8091 3.8288 16.6159C3.5218 16.2743 3.20125 15.9237 2.85813 15.5283C0.636887 13.1598 -0.247999 10.7869 0.0590021 8.06786C0.564652 3.63656 4.35702 0.167025 8.87627 0.00523286C9.55348 -0.0172382 10.2352 0.0321982 10.9034 0.16253C14.0682 0.76925 16.2669 2.5984 17.4317 5.60503C18.1947 7.57349 18.1902 9.60937 17.4136 11.6587C16.4339 14.2519 14.61 16.081 11.9869 17.1057C11.0479 17.4743 10.0727 17.6765 9.08394 17.7124C8.42479 17.7349 7.74307 17.6855 7.06135 17.5596C7.0162 17.5507 6.9846 17.5507 6.95299 17.5507C6.90333 17.5507 6.8627 17.5686 6.83109 17.6001C6.78595 17.645 6.78143 17.7124 6.78595 17.8023C6.81304 18.1034 6.80401 20 6.80401 20ZM12.6641 11.1239C12.5197 11.6453 12.2127 12.0857 11.7251 12.4677C11.0298 13.0205 10.1765 13.3306 9.1923 13.4025C9.12006 13.407 9.04783 13.4115 8.97559 13.416C7.874 13.4564 6.95299 13.2003 6.1584 12.6385C5.63921 12.2699 5.31415 11.8205 5.17419 11.2632C5.09292 10.9486 4.84913 10.7509 4.54664 10.7599C4.50601 10.7599 4.46086 10.7689 4.41571 10.7779C4.06808 10.8588 3.86492 11.1913 3.94167 11.5509C4.05905 12.1216 4.33896 12.6385 4.76786 13.0969C5.56246 13.9463 6.59633 14.4407 7.92366 14.6159C8.29838 14.6654 8.6731 14.6833 9.03428 14.6699C9.95077 14.6384 10.8131 14.4137 11.6754 13.9867C12.7318 13.4295 13.4271 12.7014 13.7928 11.7486C13.8244 11.6632 13.856 11.5688 13.8831 11.4745C13.9915 11.0835 13.8334 10.7509 13.4903 10.6475C13.4181 10.6251 13.3458 10.6161 13.2736 10.6206C12.9847 10.6251 12.7454 10.8273 12.6641 11.1239Z" fill="var(--fill-0, white)"/>
</svg>
